<?xml version="1.0" encoding="utf-8"?>
<!-- Generator: Adobe Illustrator 24.0.0, SVG Export Plug-In . SVG Version: 6.00 Build 0)  -->
<svg version="1.1" id="outline" xmlns="http://www.w3.org/2000/svg" xmlns:xlink="http://www.w3.org/1999/xlink" x="0px" y="0px"
	 viewBox="0 0 512 512" enable-background="new 0 0 512 512" xml:space="preserve">
<path d="M136,160c-48.523,0-88,39.477-88,88s39.477,88,88,88s88-39.477,88-88S184.523,160,136,160z M94.751,306.96
	c4.4-10.037,12.367-18.188,22.403-22.82c5.79,2.481,12.159,3.86,18.847,3.86c6.694,0,13.071-1.382,18.865-3.868
	c10.013,4.621,17.973,12.758,22.384,22.828C165.557,315.165,151.336,320,136,320C120.663,320,106.443,315.165,94.751,306.96z
	 M136,272c-17.645,0-32-14.355-32-32s14.355-32,32-32s32,14.355,32,32S153.645,272,136,272z M189.658,295.942
	c-4.772-8.799-11.636-16.282-19.964-21.797C178.519,265.437,184,253.348,184,240c0-26.468-21.532-48-48-48s-48,21.532-48,48
	c0,13.353,5.485,25.444,14.314,34.154c-8.338,5.526-15.199,13.019-19.964,21.798C70.949,283.209,64,266.404,64,248
	c0-39.701,32.299-72,72-72s72,32.299,72,72C208,266.399,201.054,283.201,189.658,295.942z"/>
<path d="M370.551,236.2c2.113-1.579,3.312-4.1,3.204-6.736l-0.695-16.955l10.166-13.587c1.581-2.113,2.019-4.869,1.169-7.367
	c-0.849-2.498-2.875-4.417-5.415-5.129l-16.341-4.579l-9.781-13.868c-1.52-2.156-3.974-3.429-6.645-3.388
	c-2.639,0.035-5.09,1.369-6.552,3.565l-9.405,14.126l-16.211,5.018c-2.521,0.78-4.494,2.753-5.275,5.273
	c-0.782,2.52-0.271,5.264,1.366,7.333l10.529,13.309l-0.238,16.968c-0.037,2.639,1.229,5.125,3.385,6.647
	c1.368,0.967,2.984,1.465,4.615,1.465c0.937,0,1.878-0.164,2.78-0.499l15.911-5.9l16.065,5.47
	C365.681,238.215,368.438,237.778,370.551,236.2z M357.29,218.457l-7.708-2.625c-1.74-0.592-3.634-0.566-5.359,0.072l-7.634,2.831
	l0.114-8.141c0.026-1.84-0.583-3.633-1.725-5.076l-5.052-6.385l7.777-2.407c1.758-0.544,3.274-1.678,4.294-3.209l4.513-6.778
	l4.693,6.654c1.061,1.503,2.606,2.596,4.378,3.092l7.84,2.197l-4.877,6.519c-1.103,1.474-1.663,3.282-1.588,5.121L357.29,218.457z"
	/>
<path d="M286.141,236.2c2.113-1.579,3.312-4.1,3.204-6.736l-0.695-16.955l10.166-13.587c1.581-2.113,2.019-4.869,1.169-7.367
	c-0.849-2.498-2.875-4.417-5.416-5.129l-16.341-4.579l-9.781-13.868c-1.521-2.156-3.99-3.429-6.645-3.388
	c-2.639,0.035-5.09,1.369-6.552,3.565l-9.404,14.127l-16.211,5.017c-2.521,0.78-4.494,2.753-5.275,5.273
	c-0.782,2.52-0.271,5.264,1.366,7.333l10.529,13.309l-0.238,16.968c-0.037,2.639,1.229,5.125,3.385,6.647
	c1.368,0.967,2.984,1.465,4.615,1.465c0.937,0,1.878-0.164,2.78-0.499l15.911-5.9l16.065,5.47
	C281.27,238.215,284.028,237.778,286.141,236.2z M272.88,218.457l-7.708-2.625c-1.739-0.592-3.634-0.566-5.359,0.072l-7.634,2.831
	l0.114-8.141c0.026-1.84-0.583-3.633-1.725-5.076l-5.052-6.385l7.777-2.407c1.758-0.544,3.274-1.678,4.294-3.209l4.512-6.777
	l4.693,6.653c1.061,1.503,2.606,2.596,4.379,3.092l7.84,2.197l-4.877,6.519c-1.103,1.474-1.663,3.282-1.588,5.121L272.88,218.457z"
	/>
<path d="M462.568,186.426l-16.341-4.579l-9.781-13.868c-1.521-2.156-4.013-3.429-6.645-3.388c-2.639,0.035-5.09,1.369-6.552,3.565
	l-9.404,14.127l-16.211,5.017c-2.521,0.78-4.494,2.753-5.275,5.273c-0.782,2.52-0.271,5.264,1.366,7.333l10.529,13.309
	l-0.238,16.968c-0.037,2.639,1.229,5.125,3.385,6.647c1.368,0.967,2.984,1.465,4.615,1.465c0.937,0,1.878-0.164,2.78-0.499
	l15.911-5.9l16.065,5.47c2.496,0.85,5.254,0.413,7.367-1.165c2.113-1.579,3.312-4.1,3.204-6.736l-0.695-16.955l10.166-13.587
	c1.581-2.113,2.019-4.869,1.169-7.367C467.136,189.057,465.109,187.138,462.568,186.426z M442.135,205.201
	c-1.103,1.474-1.663,3.282-1.588,5.121l0.333,8.135l-7.708-2.625c-1.74-0.592-3.633-0.566-5.359,0.072l-7.634,2.831l0.114-8.141
	c0.026-1.84-0.583-3.633-1.725-5.076l-5.052-6.385l7.777-2.407c1.758-0.544,3.274-1.678,4.294-3.209l4.512-6.777l4.693,6.653
	c1.061,1.503,2.606,2.596,4.379,3.092l7.84,2.197L442.135,205.201z"/>
<path d="M338.158,268.131l-16.341-4.579l-9.781-13.868c-1.5-2.127-3.938-3.389-6.537-3.389c-0.035,0-0.072,0-0.107,0.001
	c-2.639,0.035-5.09,1.369-6.552,3.565l-9.404,14.127l-16.211,5.017c-2.521,0.78-4.494,2.753-5.275,5.273
	c-0.782,2.52-0.271,5.263,1.366,7.332l10.528,13.31l-0.237,16.968c-0.037,2.639,1.229,5.125,3.385,6.647
	c1.369,0.967,2.984,1.465,4.615,1.465c0.937,0,1.878-0.164,2.78-0.499l15.911-5.9l16.063,5.47c2.5,0.85,5.256,0.415,7.368-1.165
	c2.113-1.579,3.312-4.1,3.204-6.735l-0.694-16.956l10.166-13.587c1.581-2.113,2.019-4.869,1.169-7.367
	C342.726,270.762,340.699,268.843,338.158,268.131z M317.725,286.906c-1.103,1.474-1.663,3.282-1.588,5.12l0.333,8.136l-7.707-2.625
	c-1.742-0.592-3.635-0.566-5.36,0.072l-7.635,2.831l0.114-8.141c0.026-1.84-0.583-3.633-1.725-5.075l-5.052-6.386l7.778-2.407
	c1.758-0.544,3.274-1.678,4.294-3.209l4.512-6.777l4.693,6.653c1.061,1.503,2.606,2.596,4.379,3.092l7.84,2.197L317.725,286.906z"/>
<path d="M430.568,268.131l-16.341-4.579l-9.781-13.868c-1.5-2.127-3.938-3.389-6.537-3.389c-0.035,0-0.072,0-0.107,0.001
	c-2.639,0.035-5.09,1.369-6.552,3.565l-9.404,14.127l-16.211,5.017c-2.521,0.78-4.494,2.753-5.275,5.273
	c-0.782,2.52-0.271,5.264,1.366,7.333l10.529,13.309l-0.238,16.968c-0.037,2.639,1.229,5.125,3.385,6.647
	c1.368,0.967,2.984,1.465,4.615,1.465c0.937,0,1.878-0.164,2.78-0.499l15.911-5.9l16.065,5.47c2.497,0.85,5.254,0.413,7.367-1.165
	c2.113-1.579,3.312-4.1,3.204-6.736l-0.695-16.955l10.166-13.587c1.581-2.113,2.019-4.869,1.169-7.367
	C435.136,270.762,433.109,268.843,430.568,268.131z M410.135,286.906c-1.103,1.474-1.663,3.282-1.588,5.121l0.333,8.135
	l-7.708-2.625c-1.739-0.592-3.634-0.566-5.359,0.072l-7.634,2.831l0.114-8.141c0.026-1.84-0.583-3.633-1.725-5.076l-5.052-6.385
	l7.777-2.407c1.758-0.544,3.274-1.678,4.294-3.209l4.512-6.777l4.693,6.653c1.061,1.503,2.606,2.596,4.379,3.092l7.84,2.197
	L410.135,286.906z"/>
<path d="M458,110.799H54c-20.953,0-38,17.047-38,38V346c0,20.953,17.047,38,38,38h298v32c0,2.908,1.578,5.587,4.122,6.997
	c1.208,0.67,2.544,1.003,3.878,1.003c1.474,0,2.945-0.407,4.24-1.216L426.294,384H458c20.953,0,38-17.047,38-38V148.799
	C496,127.846,478.953,110.799,458,110.799z M480,346c0,12.131-9.869,22-22,22h-34c-1.499,0-2.969,0.421-4.24,1.216L368,401.566V384
	c0-8.822-7.178-16-16-16H54c-12.131,0-22-9.869-22-22V148.799c0-12.131,9.869-22,22-22h404c12.131,0,22,9.869,22,22V346z"/>
</svg>
